<svg xmlns="http://www.w3.org/2000/svg" version="1.1" xmlns:xlink="http://www.w3.org/1999/xlink" xmlns:svgjs="http://svgjs.dev/svgjs" width="1440" height="560" preserveAspectRatio="none" viewBox="0 0 1440 560"><g mask="url(&quot;#SvgjsMask1210&quot;)" fill="none"><rect width="1440" height="560" x="0" y="0" fill="rgba(122, 22, 22, 1)"></rect><path d="M1440 0L1422.44 0L1440 26.26z" fill="rgba(255, 255, 255, .1)"></path><path d="M1422.44 0L1440 26.26L1440 317.89L641.6400000000001 0z" fill="rgba(255, 255, 255, .075)"></path><path d="M641.6400000000001 0L1440 317.89L1440 395.14L576.5000000000001 0z" fill="rgba(255, 255, 255, .05)"></path><path d="M576.5000000000001 0L1440 395.14L1440 477.53999999999996L322.34000000000015 0z" fill="rgba(255, 255, 255, .025)"></path><path d="M0 560L489.66 560L0 331.77z" fill="rgba(0, 0, 0, .1)"></path><path d="M0 331.77L489.66 560L720.25 560L0 179.23999999999998z" fill="rgba(0, 0, 0, .075)"></path><path d="M0 179.24L720.25 560L864.1 560L0 147.3z" fill="rgba(0, 0, 0, .05)"></path><path d="M0 147.3L864.1 560L1261.44 560L0 73.83000000000001z" fill="rgba(0, 0, 0, .025)"></path></g><defs><mask id="SvgjsMask1210"><rect width="1440" height="560" fill="#ffffff"></rect></mask></defs></svg>